<svg width="188" height="58" viewBox="0 0 188 58" fill="none" xmlns="http://www.w3.org/2000/svg">
<path d="M20.952 11.276C21.528 11.588 21.816 12.068 21.816 12.716C21.816 13.148 21.672 13.544 21.384 13.904C21.096 14.288 20.7 14.48 20.196 14.48C19.86 14.48 19.536 14.396 19.224 14.228C17.736 13.388 16.128 12.968 14.4 12.968C12.6 12.968 11.004 13.364 9.612 14.156C8.244 14.948 7.176 16.064 6.408 17.504C5.64 18.92 5.256 20.552 5.256 22.4C5.256 24.392 5.652 26.108 6.444 27.548C7.236 28.988 8.328 30.092 9.72 30.86C11.112 31.604 12.672 31.976 14.4 31.976C16.176 31.976 17.784 31.544 19.224 30.68C19.512 30.536 19.824 30.464 20.16 30.464C20.688 30.464 21.108 30.668 21.42 31.076C21.708 31.436 21.852 31.82 21.852 32.228C21.852 32.516 21.768 32.792 21.6 33.056C21.456 33.296 21.252 33.488 20.988 33.632C20.052 34.16 18.996 34.58 17.82 34.892C16.668 35.204 15.528 35.36 14.4 35.36C12.072 35.36 9.924 34.844 7.956 33.812C6.012 32.78 4.452 31.28 3.276 29.312C2.124 27.344 1.548 25.04 1.548 22.4C1.548 19.976 2.1 17.792 3.204 15.848C4.332 13.88 5.868 12.344 7.812 11.24C9.78 10.112 11.976 9.548 14.4 9.548C16.728 9.548 18.912 10.124 20.952 11.276ZM43.369 25.568C43.369 27.44 42.949 29.12 42.109 30.608C41.269 32.096 40.117 33.26 38.653 34.1C37.213 34.94 35.617 35.36 33.865 35.36C32.113 35.36 30.505 34.94 29.041 34.1C27.601 33.26 26.461 32.096 25.621 30.608C24.781 29.12 24.361 27.44 24.361 25.568C24.361 23.696 24.781 22.004 25.621 20.492C26.461 18.98 27.601 17.804 29.041 16.964C30.505 16.124 32.113 15.704 33.865 15.704C35.617 15.704 37.213 16.124 38.653 16.964C40.117 17.804 41.269 18.98 42.109 20.492C42.949 22.004 43.369 23.696 43.369 25.568ZM39.949 25.568C39.949 24.272 39.673 23.12 39.121 22.112C38.593 21.08 37.861 20.288 36.925 19.736C36.013 19.16 34.993 18.872 33.865 18.872C32.737 18.872 31.705 19.16 30.769 19.736C29.857 20.288 29.125 21.08 28.573 22.112C28.045 23.12 27.781 24.272 27.781 25.568C27.781 26.84 28.045 27.98 28.573 28.988C29.125 29.996 29.857 30.788 30.769 31.364C31.705 31.916 32.737 32.192 33.865 32.192C34.993 32.192 36.013 31.916 36.925 31.364C37.861 30.788 38.593 29.996 39.121 28.988C39.673 27.98 39.949 26.84 39.949 25.568ZM56.7411 15.704C57.3651 15.704 57.9051 15.872 58.3611 16.208C58.8171 16.52 59.0451 16.916 59.0451 17.396C59.0451 17.972 58.8891 18.416 58.5771 18.728C58.2891 19.016 57.9291 19.16 57.4971 19.16C57.2811 19.16 56.9571 19.088 56.5251 18.944C56.0211 18.776 55.6251 18.692 55.3371 18.692C54.5931 18.692 53.8611 18.956 53.1411 19.484C52.4451 19.988 51.8691 20.696 51.4131 21.608C50.9811 22.496 50.7651 23.492 50.7651 24.596V33.272C50.7651 33.752 50.5971 34.16 50.2611 34.496C49.9491 34.832 49.5411 35 49.0371 35C48.5331 35 48.1251 34.844 47.8131 34.532C47.5011 34.196 47.3451 33.776 47.3451 33.272V17.864C47.3451 17.384 47.5011 16.976 47.8131 16.64C48.1491 16.304 48.5571 16.136 49.0371 16.136C49.5411 16.136 49.9491 16.304 50.2611 16.64C50.5971 16.976 50.7651 17.384 50.7651 17.864V19.7C51.2931 18.524 52.0851 17.576 53.1411 16.856C54.1971 16.112 55.3971 15.728 56.7411 15.704ZM71.6842 15.812C73.3162 15.812 74.7922 16.232 76.1122 17.072C77.4322 17.888 78.4642 19.04 79.2082 20.528C79.9762 22.016 80.3602 23.696 80.3602 25.568C80.3602 27.44 79.9762 29.12 79.2082 30.608C78.4642 32.072 77.4322 33.224 76.1122 34.064C74.7922 34.904 73.3402 35.324 71.7562 35.324C70.5082 35.324 69.3442 35.048 68.2642 34.496C67.1842 33.944 66.3082 33.272 65.6362 32.48V40.472C65.6362 40.952 65.4682 41.36 65.1322 41.696C64.8202 42.032 64.4122 42.2 63.9082 42.2C63.4282 42.2 63.0202 42.032 62.6842 41.696C62.3722 41.384 62.2162 40.976 62.2162 40.472V17.828C62.2162 17.324 62.3722 16.904 62.6842 16.568C62.9962 16.232 63.4042 16.064 63.9082 16.064C64.4122 16.064 64.8202 16.232 65.1322 16.568C65.4682 16.904 65.6362 17.324 65.6362 17.828V18.872C66.2122 18.032 67.0522 17.312 68.1562 16.712C69.2602 16.112 70.4362 15.812 71.6842 15.812ZM71.2882 32.156C72.3922 32.156 73.3882 31.868 74.2762 31.292C75.1642 30.716 75.8482 29.936 76.3282 28.952C76.8322 27.944 77.0842 26.816 77.0842 25.568C77.0842 24.32 76.8322 23.204 76.3282 22.22C75.8482 21.212 75.1642 20.42 74.2762 19.844C73.3882 19.268 72.3922 18.98 71.2882 18.98C70.1602 18.98 69.1522 19.268 68.2642 19.844C67.3762 20.396 66.6802 21.176 66.1762 22.184C65.6962 23.192 65.4562 24.32 65.4562 25.568C65.4562 26.816 65.6962 27.944 66.1762 28.952C66.6802 29.96 67.3762 30.752 68.2642 31.328C69.1522 31.88 70.1602 32.156 71.2882 32.156ZM83.2494 32.048C83.0334 31.712 82.9254 31.388 82.9254 31.076C82.9254 30.596 83.1774 30.188 83.6814 29.852C83.9214 29.684 84.1974 29.6 84.5094 29.6C84.9414 29.6 85.3374 29.78 85.6974 30.14C86.4174 30.956 87.1854 31.568 88.0014 31.976C88.8414 32.384 89.8374 32.588 90.9894 32.588C91.9014 32.564 92.7054 32.36 93.4014 31.976C94.0974 31.568 94.4454 30.92 94.4454 30.032C94.4454 29.216 94.0854 28.592 93.3654 28.16C92.6694 27.728 91.6374 27.332 90.2694 26.972C88.9254 26.612 87.8094 26.24 86.9214 25.856C86.0334 25.448 85.2774 24.872 84.6534 24.128C84.0534 23.36 83.7534 22.364 83.7534 21.14C83.7534 20.06 84.0534 19.112 84.6534 18.296C85.2774 17.48 86.0934 16.844 87.1014 16.388C88.1334 15.932 89.2494 15.704 90.4494 15.704C91.6014 15.704 92.7414 15.92 93.8694 16.352C95.0214 16.784 95.9574 17.444 96.6774 18.332C96.9654 18.668 97.1094 19.016 97.1094 19.376C97.1094 19.76 96.9174 20.132 96.5334 20.492C96.2934 20.708 95.9934 20.816 95.6334 20.816C95.2014 20.816 94.8534 20.672 94.5894 20.384C94.0854 19.808 93.4614 19.364 92.7174 19.052C91.9974 18.74 91.1934 18.584 90.3054 18.584C89.3934 18.584 88.6134 18.776 87.9654 19.16C87.3414 19.52 87.0294 20.144 87.0294 21.032C87.0534 21.872 87.4134 22.496 88.1094 22.904C88.8294 23.312 89.9214 23.708 91.3854 24.092C92.6574 24.428 93.7134 24.788 94.5534 25.172C95.3934 25.556 96.1014 26.132 96.6774 26.9C97.2534 27.644 97.5414 28.628 97.5414 29.852C97.5414 30.98 97.2174 31.964 96.5694 32.804C95.9214 33.62 95.0694 34.256 94.0134 34.712C92.9814 35.144 91.8774 35.36 90.7014 35.36C89.1894 35.36 87.7854 35.096 86.4894 34.568C85.2174 34.04 84.1374 33.2 83.2494 32.048ZM119.342 25.568C119.342 27.44 118.922 29.12 118.082 30.608C117.242 32.096 116.09 33.26 114.626 34.1C113.186 34.94 111.59 35.36 109.838 35.36C108.086 35.36 106.478 34.94 105.014 34.1C103.574 33.26 102.434 32.096 101.594 30.608C100.754 29.12 100.334 27.44 100.334 25.568C100.334 23.696 100.754 22.004 101.594 20.492C102.434 18.98 103.574 17.804 105.014 16.964C106.478 16.124 108.086 15.704 109.838 15.704C111.59 15.704 113.186 16.124 114.626 16.964C116.09 17.804 117.242 18.98 118.082 20.492C118.922 22.004 119.342 23.696 119.342 25.568ZM115.922 25.568C115.922 24.272 115.646 23.12 115.094 22.112C114.566 21.08 113.834 20.288 112.898 19.736C111.986 19.16 110.966 18.872 109.838 18.872C108.71 18.872 107.678 19.16 106.742 19.736C105.83 20.288 105.098 21.08 104.546 22.112C104.018 23.12 103.754 24.272 103.754 25.568C103.754 26.84 104.018 27.98 104.546 28.988C105.098 29.996 105.83 30.788 106.742 31.364C107.678 31.916 108.71 32.192 109.838 32.192C110.966 32.192 111.986 31.916 112.898 31.364C113.834 30.788 114.566 29.996 115.094 28.988C115.646 27.98 115.922 26.84 115.922 25.568ZM131.382 11.456C130.59 11.456 130.002 11.696 129.618 12.176C129.258 12.656 129.078 13.244 129.078 13.94V16.46H132.642C133.122 16.46 133.506 16.616 133.794 16.928C134.106 17.216 134.262 17.588 134.262 18.044C134.262 18.5 134.106 18.872 133.794 19.16C133.506 19.448 133.122 19.592 132.642 19.592H129.078V33.272C129.078 33.752 128.91 34.16 128.574 34.496C128.262 34.832 127.854 35 127.35 35C126.87 35 126.462 34.832 126.126 34.496C125.814 34.16 125.658 33.752 125.658 33.272V19.592H123.426C122.97 19.592 122.586 19.448 122.274 19.16C121.962 18.872 121.806 18.5 121.806 18.044C121.806 17.588 121.962 17.216 122.274 16.928C122.586 16.616 122.97 16.46 123.426 16.46H125.658V13.94C125.658 12.26 126.198 10.928 127.278 9.944C128.358 8.936 129.882 8.432 131.85 8.432C132.666 8.432 133.386 8.588 134.01 8.9C134.634 9.188 134.946 9.632 134.946 10.232C134.946 10.688 134.802 11.072 134.514 11.384C134.25 11.672 133.926 11.816 133.542 11.816C133.446 11.816 133.182 11.768 132.75 11.672C132.222 11.528 131.766 11.456 131.382 11.456ZM142.563 19.484V30.212C142.563 31.412 143.103 32.012 144.183 32.012C144.351 32.012 144.579 31.976 144.867 31.904C145.155 31.808 145.383 31.76 145.551 31.76C145.863 31.76 146.127 31.892 146.343 32.156C146.559 32.42 146.667 32.756 146.667 33.164C146.667 33.668 146.379 34.1 145.803 34.46C145.227 34.82 144.579 35 143.859 35C143.067 35 142.335 34.916 141.663 34.748C141.015 34.58 140.427 34.16 139.899 33.488C139.395 32.792 139.143 31.748 139.143 30.356V19.484H137.055C136.599 19.484 136.215 19.34 135.903 19.052C135.615 18.74 135.471 18.356 135.471 17.9C135.471 17.444 135.615 17.072 135.903 16.784C136.215 16.496 136.599 16.352 137.055 16.352H139.143V13.328C139.143 12.848 139.299 12.44 139.611 12.104C139.947 11.768 140.367 11.6 140.871 11.6C141.351 11.6 141.747 11.768 142.059 12.104C142.395 12.44 142.563 12.848 142.563 13.328V16.352H145.551C146.007 16.352 146.379 16.508 146.667 16.82C146.979 17.108 147.135 17.48 147.135 17.936C147.135 18.392 146.979 18.764 146.667 19.052C146.379 19.34 146.007 19.484 145.551 19.484H142.563ZM152.35 34.964C151.774 34.964 151.33 34.808 151.018 34.496C150.73 34.184 150.586 33.728 150.586 33.128V32.444C150.586 31.868 150.73 31.424 151.018 31.112C151.33 30.8 151.774 30.644 152.35 30.644H152.71C153.31 30.644 153.754 30.8 154.042 31.112C154.354 31.424 154.51 31.868 154.51 32.444V33.128C154.51 34.352 153.91 34.964 152.71 34.964H152.35ZM162.312 33.272C162.312 33.752 162.144 34.16 161.808 34.496C161.496 34.832 161.088 35 160.584 35C160.104 35 159.696 34.832 159.36 34.496C159.048 34.16 158.892 33.752 158.892 33.272V17.684C158.892 17.204 159.048 16.796 159.36 16.46C159.696 16.124 160.104 15.956 160.584 15.956C161.088 15.956 161.496 16.124 161.808 16.46C162.144 16.796 162.312 17.204 162.312 17.684V33.272ZM160.584 13.58C159.888 13.58 159.384 13.46 159.072 13.22C158.784 12.956 158.64 12.548 158.64 11.996V11.42C158.64 10.844 158.796 10.436 159.108 10.196C159.444 9.956 159.948 9.836 160.62 9.836C161.292 9.836 161.772 9.968 162.06 10.232C162.372 10.472 162.528 10.868 162.528 11.42V11.996C162.528 12.572 162.372 12.98 162.06 13.22C161.748 13.46 161.256 13.58 160.584 13.58ZM185.084 25.568C185.084 27.44 184.664 29.12 183.824 30.608C182.984 32.096 181.832 33.26 180.368 34.1C178.928 34.94 177.332 35.36 175.58 35.36C173.828 35.36 172.22 34.94 170.756 34.1C169.316 33.26 168.176 32.096 167.336 30.608C166.496 29.12 166.076 27.44 166.076 25.568C166.076 23.696 166.496 22.004 167.336 20.492C168.176 18.98 169.316 17.804 170.756 16.964C172.22 16.124 173.828 15.704 175.58 15.704C177.332 15.704 178.928 16.124 180.368 16.964C181.832 17.804 182.984 18.98 183.824 20.492C184.664 22.004 185.084 23.696 185.084 25.568ZM181.664 25.568C181.664 24.272 181.388 23.12 180.836 22.112C180.308 21.08 179.576 20.288 178.64 19.736C177.728 19.16 176.708 18.872 175.58 18.872C174.452 18.872 173.42 19.16 172.484 19.736C171.572 20.288 170.84 21.08 170.288 22.112C169.76 23.12 169.496 24.272 169.496 25.568C169.496 26.84 169.76 27.98 170.288 28.988C170.84 29.996 171.572 30.788 172.484 31.364C173.42 31.916 174.452 32.192 175.58 32.192C176.708 32.192 177.728 31.916 178.64 31.364C179.576 30.788 180.308 29.996 180.836 28.988C181.388 27.98 181.664 26.84 181.664 25.568Z" fill="#444E50"/>
<path d="M1.53367 56C1.42701 56 1.33367 55.9633 1.25367 55.89C1.18034 55.81 1.14367 55.7167 1.14367 55.61V48.58C1.14367 48.4667 1.18034 48.3733 1.25367 48.3C1.32701 48.2267 1.42034 48.19 1.53367 48.19H6.22367C6.33701 48.19 6.43034 48.2267 6.50367 48.3C6.57701 48.3667 6.61367 48.4567 6.61367 48.57C6.61367 48.67 6.57701 48.7567 6.50367 48.83C6.43034 48.9033 6.33701 48.94 6.22367 48.94H1.92367V51.7H5.05367C5.16701 51.7 5.26034 51.7367 5.33367 51.81C5.40701 51.8833 5.44367 51.9733 5.44367 52.08C5.44367 52.1867 5.40701 52.2767 5.33367 52.35C5.26034 52.4233 5.16701 52.46 5.05367 52.46H1.92367V55.61C1.92367 55.7167 1.88701 55.81 1.81367 55.89C1.74034 55.9633 1.64701 56 1.53367 56ZM6.7825 56C6.62917 56 6.51917 55.9367 6.4525 55.81C6.38583 55.6833 6.37917 55.56 6.4325 55.44L9.3725 48.46C9.44583 48.28 9.5725 48.19 9.7525 48.19C9.92583 48.19 10.0492 48.28 10.1225 48.46L13.0725 55.45C13.1325 55.5767 13.1225 55.7 13.0425 55.82C12.9692 55.94 12.8625 56 12.7225 56C12.6425 56 12.5692 55.98 12.5025 55.94C12.4425 55.9 12.3925 55.84 12.3525 55.76L9.6025 49.09H9.9125L7.1425 55.76C7.10917 55.84 7.05917 55.9 6.9925 55.94C6.9325 55.98 6.8625 56 6.7825 56ZM7.4425 54.14L7.7425 53.47H11.8025L12.1025 54.14H7.4425ZM17.0438 56.1C16.6171 56.1 16.2204 56.04 15.8538 55.92C15.4938 55.7933 15.1804 55.6167 14.9138 55.39C14.6471 55.1633 14.4438 54.9 14.3038 54.6C14.2504 54.4933 14.2471 54.3967 14.2938 54.31C14.3471 54.2167 14.4338 54.1533 14.5538 54.12C14.6471 54.0933 14.7371 54.1033 14.8238 54.15C14.9171 54.1967 14.9871 54.2667 15.0338 54.36C15.1338 54.5533 15.2804 54.7267 15.4738 54.88C15.6671 55.0333 15.8971 55.1533 16.1638 55.24C16.4304 55.32 16.7238 55.36 17.0438 55.36C17.3971 55.36 17.7104 55.3033 17.9838 55.19C18.2571 55.07 18.4704 54.9 18.6238 54.68C18.7838 54.4533 18.8638 54.18 18.8638 53.86C18.8638 53.4533 18.7138 53.1033 18.4138 52.81C18.1138 52.5167 17.6438 52.33 17.0038 52.25C16.2238 52.1567 15.6138 51.9167 15.1738 51.53C14.7338 51.1367 14.5138 50.6567 14.5138 50.09C14.5138 49.6833 14.6204 49.33 14.8338 49.03C15.0538 48.73 15.3538 48.5 15.7338 48.34C16.1138 48.1733 16.5504 48.09 17.0438 48.09C17.4104 48.09 17.7438 48.15 18.0438 48.27C18.3438 48.3833 18.6038 48.5367 18.8238 48.73C19.0504 48.9167 19.2338 49.1233 19.3738 49.35C19.4404 49.4567 19.4604 49.56 19.4338 49.66C19.4138 49.76 19.3571 49.8367 19.2638 49.89C19.1638 49.9367 19.0604 49.9433 18.9538 49.91C18.8538 49.8767 18.7771 49.8133 18.7238 49.72C18.6238 49.5667 18.4971 49.4233 18.3438 49.29C18.1971 49.15 18.0171 49.04 17.8038 48.96C17.5904 48.88 17.3338 48.8367 17.0338 48.83C16.5071 48.83 16.0838 48.9433 15.7638 49.17C15.4438 49.39 15.2838 49.7133 15.2838 50.14C15.2838 50.3667 15.3438 50.5767 15.4638 50.77C15.5838 50.9567 15.7804 51.12 16.0538 51.26C16.3338 51.3933 16.7071 51.4933 17.1738 51.56C18.0071 51.68 18.6238 51.9367 19.0238 52.33C19.4304 52.7167 19.6338 53.2233 19.6338 53.85C19.6338 54.21 19.5671 54.53 19.4338 54.81C19.3071 55.09 19.1238 55.3267 18.8838 55.52C18.6504 55.7067 18.3738 55.85 18.0538 55.95C17.7404 56.05 17.4038 56.1 17.0438 56.1ZM23.5345 56C23.4278 56 23.3345 55.9633 23.2545 55.89C23.1811 55.81 23.1445 55.7167 23.1445 55.61V48.19H23.9245V55.61C23.9245 55.7167 23.8878 55.81 23.8145 55.89C23.7411 55.9633 23.6478 56 23.5345 56ZM20.7745 48.9C20.6678 48.9 20.5811 48.8667 20.5145 48.8C20.4478 48.7333 20.4145 48.65 20.4145 48.55C20.4145 48.4433 20.4478 48.3567 20.5145 48.29C20.5811 48.2233 20.6678 48.19 20.7745 48.19H26.3045C26.4111 48.19 26.4978 48.2233 26.5645 48.29C26.6311 48.3567 26.6645 48.4433 26.6645 48.55C26.6645 48.65 26.6311 48.7333 26.5645 48.8C26.4978 48.8667 26.4111 48.9 26.3045 48.9H20.7745ZM31.9369 56C31.8235 56 31.7302 55.9633 31.6569 55.89C31.5835 55.8167 31.5469 55.7233 31.5469 55.61V48.58C31.5469 48.4667 31.5835 48.3733 31.6569 48.3C31.7302 48.2267 31.8235 48.19 31.9369 48.19H33.7369C34.3102 48.19 34.8335 48.2867 35.3069 48.48C35.7869 48.6667 36.2002 48.9367 36.5469 49.29C36.8935 49.6367 37.1602 50.0467 37.3469 50.52C37.5402 50.9933 37.6369 51.5167 37.6369 52.09C37.6369 52.6633 37.5402 53.19 37.3469 53.67C37.1602 54.1433 36.8935 54.5567 36.5469 54.91C36.2002 55.2567 35.7869 55.5267 35.3069 55.72C34.8335 55.9067 34.3102 56 33.7369 56H31.9369ZM32.3269 55.3H33.7369C34.3502 55.3 34.8902 55.1633 35.3569 54.89C35.8302 54.61 36.2002 54.23 36.4669 53.75C36.7335 53.2633 36.8669 52.71 36.8669 52.09C36.8669 51.47 36.7335 50.92 36.4669 50.44C36.2002 49.9533 35.8302 49.5733 35.3569 49.3C34.8902 49.0267 34.3502 48.89 33.7369 48.89H32.3269V55.3ZM40.0322 56C39.9189 56 39.8255 55.9633 39.7522 55.89C39.6789 55.8167 39.6422 55.7233 39.6422 55.61V48.58C39.6422 48.4667 39.6789 48.3733 39.7522 48.3C39.8255 48.2267 39.9189 48.19 40.0322 48.19H44.7222C44.8289 48.19 44.9189 48.2267 44.9922 48.3C45.0722 48.3667 45.1122 48.4567 45.1122 48.57C45.1122 48.67 45.0722 48.7567 44.9922 48.83C44.9189 48.9033 44.8289 48.94 44.7222 48.94H40.4222V51.7H43.5522C43.6655 51.7 43.7589 51.7367 43.8322 51.81C43.9055 51.8833 43.9422 51.9733 43.9422 52.08C43.9422 52.1867 43.9055 52.2767 43.8322 52.35C43.7589 52.4233 43.6655 52.46 43.5522 52.46H40.4222V55.25H44.7222C44.8289 55.25 44.9189 55.2867 44.9922 55.36C45.0722 55.4333 45.1122 55.52 45.1122 55.62C45.1122 55.7333 45.0722 55.8267 44.9922 55.9C44.9189 55.9667 44.8289 56 44.7222 56H40.0322ZM49.556 56C49.3893 56 49.2693 55.9167 49.196 55.75L46.226 48.8C46.1527 48.6133 46.146 48.4667 46.206 48.36C46.2727 48.2467 46.386 48.19 46.546 48.19C46.7127 48.19 46.8327 48.2733 46.906 48.44L49.666 55.04H49.446L52.196 48.46C52.236 48.36 52.286 48.29 52.346 48.25C52.406 48.21 52.486 48.19 52.586 48.19C52.7393 48.19 52.8427 48.25 52.896 48.37C52.9493 48.4833 52.946 48.6133 52.886 48.76L49.906 55.75C49.866 55.8433 49.816 55.91 49.756 55.95C49.696 55.9833 49.6293 56 49.556 56ZM54.9142 56C54.8009 56 54.7076 55.9633 54.6342 55.89C54.5609 55.8167 54.5242 55.7233 54.5242 55.61V48.58C54.5242 48.4667 54.5609 48.3733 54.6342 48.3C54.7076 48.2267 54.8009 48.19 54.9142 48.19H59.6042C59.7109 48.19 59.8009 48.2267 59.8742 48.3C59.9542 48.3667 59.9942 48.4567 59.9942 48.57C59.9942 48.67 59.9542 48.7567 59.8742 48.83C59.8009 48.9033 59.7109 48.94 59.6042 48.94H55.3042V51.7H58.4342C58.5476 51.7 58.6409 51.7367 58.7142 51.81C58.7876 51.8833 58.8242 51.9733 58.8242 52.08C58.8242 52.1867 58.7876 52.2767 58.7142 52.35C58.6409 52.4233 58.5476 52.46 58.4342 52.46H55.3042V55.25H59.6042C59.7109 55.25 59.8009 55.2867 59.8742 55.36C59.9542 55.4333 59.9942 55.52 59.9942 55.62C59.9942 55.7333 59.9542 55.8267 59.8742 55.9C59.8009 55.9667 59.7109 56 59.6042 56H54.9142ZM62.238 56C62.1314 56 62.038 55.9633 61.958 55.89C61.8847 55.8167 61.848 55.7233 61.848 55.61V48.58C61.848 48.4733 61.8847 48.3833 61.958 48.31C62.038 48.23 62.1314 48.19 62.238 48.19C62.3447 48.19 62.4347 48.23 62.508 48.31C62.588 48.3833 62.628 48.4733 62.628 48.58V55.26H66.538C66.6447 55.26 66.7347 55.2967 66.808 55.37C66.888 55.4367 66.928 55.5233 66.928 55.63C66.928 55.7367 66.888 55.8267 66.808 55.9C66.7347 55.9667 66.6447 56 66.538 56H62.238ZM71.483 56.1C70.903 56.1 70.3697 56 69.883 55.8C69.3964 55.6 68.973 55.32 68.613 54.96C68.2597 54.6 67.983 54.1767 67.783 53.69C67.5897 53.2033 67.493 52.67 67.493 52.09C67.493 51.5167 67.5897 50.9867 67.783 50.5C67.983 50.0133 68.2597 49.59 68.613 49.23C68.973 48.87 69.3964 48.59 69.883 48.39C70.3697 48.19 70.903 48.09 71.483 48.09C72.0564 48.09 72.5864 48.19 73.073 48.39C73.5597 48.59 73.983 48.87 74.343 49.23C74.703 49.59 74.9797 50.0133 75.173 50.5C75.373 50.9867 75.473 51.5167 75.473 52.09C75.473 52.67 75.373 53.2033 75.173 53.69C74.9797 54.1767 74.703 54.6 74.343 54.96C73.983 55.32 73.5597 55.6 73.073 55.8C72.5864 56 72.0564 56.1 71.483 56.1ZM71.483 55.36C71.943 55.36 72.3697 55.28 72.763 55.12C73.1564 54.9533 73.4964 54.7233 73.783 54.43C74.0764 54.13 74.303 53.7833 74.463 53.39C74.623 52.99 74.703 52.5567 74.703 52.09C74.703 51.63 74.623 51.2033 74.463 50.81C74.303 50.41 74.0764 50.0633 73.783 49.77C73.4964 49.47 73.1564 49.24 72.763 49.08C72.3697 48.9133 71.943 48.83 71.483 48.83C71.0164 48.83 70.5864 48.9133 70.193 49.08C69.7997 49.24 69.4564 49.47 69.163 49.77C68.8764 50.0633 68.653 50.41 68.493 50.81C68.333 51.2033 68.253 51.63 68.253 52.09C68.253 52.5567 68.333 52.99 68.493 53.39C68.653 53.7833 68.8764 54.13 69.163 54.43C69.4564 54.7233 69.7997 54.9533 70.193 55.12C70.5864 55.28 71.0164 55.36 71.483 55.36ZM77.872 56C77.7587 56 77.6654 55.9633 77.592 55.89C77.5187 55.8167 77.482 55.7233 77.482 55.61V48.58C77.482 48.4667 77.5187 48.3733 77.592 48.3C77.6654 48.2267 77.7587 48.19 77.872 48.19H79.872C80.3654 48.19 80.802 48.3 81.182 48.52C81.562 48.7333 81.8587 49.03 82.072 49.41C82.2854 49.79 82.392 50.23 82.392 50.73C82.392 51.2167 82.2854 51.65 82.072 52.03C81.8587 52.4033 81.562 52.7 81.182 52.92C80.802 53.1333 80.3654 53.24 79.872 53.24H78.262V55.61C78.262 55.7233 78.2254 55.8167 78.152 55.89C78.0787 55.9633 77.9854 56 77.872 56ZM78.262 52.49H79.872C80.212 52.49 80.5154 52.4167 80.782 52.27C81.0487 52.1167 81.2554 51.9067 81.402 51.64C81.5554 51.3733 81.632 51.07 81.632 50.73C81.632 50.3767 81.5554 50.0667 81.402 49.8C81.2554 49.5333 81.0487 49.3233 80.782 49.17C80.5154 49.0167 80.212 48.94 79.872 48.94H78.262V52.49ZM84.3951 56C84.2884 56 84.1951 55.9633 84.1151 55.89C84.0417 55.81 84.0051 55.7167 84.0051 55.61V48.58C84.0051 48.4667 84.0417 48.3733 84.1151 48.3C84.1951 48.2267 84.2884 48.19 84.3951 48.19C84.5551 48.19 84.6717 48.2567 84.7451 48.39L88.1151 55.09H87.7751L91.0851 48.39C91.1651 48.2567 91.2817 48.19 91.4351 48.19C91.5417 48.19 91.6317 48.2267 91.7051 48.3C91.7784 48.3733 91.8151 48.4667 91.8151 48.58V55.61C91.8151 55.7167 91.7784 55.81 91.7051 55.89C91.6317 55.9633 91.5417 56 91.4351 56C91.3217 56 91.2251 55.9633 91.1451 55.89C91.0717 55.81 91.0351 55.7167 91.0351 55.61V49.59L91.2051 49.6L88.2551 55.63C88.1817 55.7567 88.0684 55.82 87.9151 55.82C87.7484 55.82 87.6284 55.74 87.5551 55.58L84.5851 49.64L84.7851 49.59V55.61C84.7851 55.7167 84.7451 55.81 84.6651 55.89C84.5917 55.9633 84.5017 56 84.3951 56ZM94.6095 56C94.4962 56 94.4029 55.9633 94.3295 55.89C94.2562 55.8167 94.2195 55.7233 94.2195 55.61V48.58C94.2195 48.4667 94.2562 48.3733 94.3295 48.3C94.4029 48.2267 94.4962 48.19 94.6095 48.19H99.2995C99.4062 48.19 99.4962 48.2267 99.5695 48.3C99.6495 48.3667 99.6895 48.4567 99.6895 48.57C99.6895 48.67 99.6495 48.7567 99.5695 48.83C99.4962 48.9033 99.4062 48.94 99.2995 48.94H94.9995V51.7H98.1295C98.2429 51.7 98.3362 51.7367 98.4095 51.81C98.4829 51.8833 98.5195 51.9733 98.5195 52.08C98.5195 52.1867 98.4829 52.2767 98.4095 52.35C98.3362 52.4233 98.2429 52.46 98.1295 52.46H94.9995V55.25H99.2995C99.4062 55.25 99.4962 55.2867 99.5695 55.36C99.6495 55.4333 99.6895 55.52 99.6895 55.62C99.6895 55.7333 99.6495 55.8267 99.5695 55.9C99.4962 55.9667 99.4062 56 99.2995 56H94.6095ZM101.933 56C101.82 56 101.727 55.9633 101.653 55.89C101.58 55.8167 101.543 55.7233 101.543 55.61V48.58C101.543 48.4667 101.58 48.3733 101.653 48.3C101.727 48.2267 101.82 48.19 101.933 48.19C102.053 48.19 102.153 48.2367 102.233 48.33L107.013 54.61V48.58C107.013 48.4667 107.05 48.3733 107.123 48.3C107.197 48.2267 107.29 48.19 107.403 48.19C107.51 48.19 107.6 48.2267 107.673 48.3C107.753 48.3733 107.793 48.4667 107.793 48.58V55.61C107.793 55.7233 107.753 55.8167 107.673 55.89C107.6 55.9633 107.51 56 107.403 56C107.35 56 107.297 55.99 107.243 55.97C107.19 55.95 107.147 55.9167 107.113 55.87L102.323 49.59V55.61C102.323 55.7233 102.283 55.8167 102.203 55.89C102.13 55.9633 102.04 56 101.933 56ZM112.465 56C112.359 56 112.265 55.9633 112.185 55.89C112.112 55.81 112.075 55.7167 112.075 55.61V48.19H112.855V55.61C112.855 55.7167 112.819 55.81 112.745 55.89C112.672 55.9633 112.579 56 112.465 56ZM109.705 48.9C109.599 48.9 109.512 48.8667 109.445 48.8C109.379 48.7333 109.345 48.65 109.345 48.55C109.345 48.4433 109.379 48.3567 109.445 48.29C109.512 48.2233 109.599 48.19 109.705 48.19H115.235C115.342 48.19 115.429 48.2233 115.495 48.29C115.562 48.3567 115.595 48.4433 115.595 48.55C115.595 48.65 115.562 48.7333 115.495 48.8C115.429 48.8667 115.342 48.9 115.235 48.9H109.705ZM122.748 56C122.641 56 122.548 55.9633 122.468 55.89C122.394 55.81 122.358 55.7167 122.358 55.61V48.19H123.138V55.61C123.138 55.7167 123.101 55.81 123.028 55.89C122.954 55.9633 122.861 56 122.748 56ZM119.988 48.9C119.881 48.9 119.794 48.8667 119.728 48.8C119.661 48.7333 119.628 48.65 119.628 48.55C119.628 48.4433 119.661 48.3567 119.728 48.29C119.794 48.2233 119.881 48.19 119.988 48.19H125.518C125.624 48.19 125.711 48.2233 125.778 48.29C125.844 48.3567 125.878 48.4433 125.878 48.55C125.878 48.65 125.844 48.7333 125.778 48.8C125.711 48.8667 125.624 48.9 125.518 48.9H119.988ZM127.82 56C127.707 56 127.614 55.9633 127.54 55.89C127.467 55.8167 127.43 55.7233 127.43 55.61V48.58C127.43 48.4667 127.467 48.3733 127.54 48.3C127.614 48.2267 127.707 48.19 127.82 48.19H132.51C132.617 48.19 132.707 48.2267 132.78 48.3C132.86 48.3667 132.9 48.4567 132.9 48.57C132.9 48.67 132.86 48.7567 132.78 48.83C132.707 48.9033 132.617 48.94 132.51 48.94H128.21V51.7H131.34C131.454 51.7 131.547 51.7367 131.62 51.81C131.694 51.8833 131.73 51.9733 131.73 52.08C131.73 52.1867 131.694 52.2767 131.62 52.35C131.547 52.4233 131.454 52.46 131.34 52.46H128.21V55.25H132.51C132.617 55.25 132.707 55.2867 132.78 55.36C132.86 55.4333 132.9 55.52 132.9 55.62C132.9 55.7333 132.86 55.8267 132.78 55.9C132.707 55.9667 132.617 56 132.51 56H127.82ZM134.324 56C134.171 56 134.061 55.9367 133.994 55.81C133.928 55.6833 133.921 55.56 133.974 55.44L136.914 48.46C136.988 48.28 137.114 48.19 137.294 48.19C137.468 48.19 137.591 48.28 137.664 48.46L140.614 55.45C140.674 55.5767 140.664 55.7 140.584 55.82C140.511 55.94 140.404 56 140.264 56C140.184 56 140.111 55.98 140.044 55.94C139.984 55.9 139.934 55.84 139.894 55.76L137.144 49.09H137.454L134.684 55.76C134.651 55.84 134.601 55.9 134.534 55.94C134.474 55.98 134.404 56 134.324 56ZM134.984 54.14L135.284 53.47H139.344L139.644 54.14H134.984ZM142.576 56C142.469 56 142.376 55.9633 142.296 55.89C142.222 55.81 142.186 55.7167 142.186 55.61V48.58C142.186 48.4667 142.222 48.3733 142.296 48.3C142.376 48.2267 142.469 48.19 142.576 48.19C142.736 48.19 142.852 48.2567 142.926 48.39L146.296 55.09H145.956L149.266 48.39C149.346 48.2567 149.462 48.19 149.616 48.19C149.722 48.19 149.812 48.2267 149.886 48.3C149.959 48.3733 149.996 48.4667 149.996 48.58V55.61C149.996 55.7167 149.959 55.81 149.886 55.89C149.812 55.9633 149.722 56 149.616 56C149.502 56 149.406 55.9633 149.326 55.89C149.252 55.81 149.216 55.7167 149.216 55.61V49.59L149.386 49.6L146.436 55.63C146.362 55.7567 146.249 55.82 146.096 55.82C145.929 55.82 145.809 55.74 145.736 55.58L142.766 49.64L142.966 49.59V55.61C142.966 55.7167 142.926 55.81 142.846 55.89C142.772 55.9633 142.682 56 142.576 56Z" fill="#01A979"/>
</svg>
